<svg width="7" height="13" viewBox="0 0 7 13" fill="none" xmlns="http://www.w3.org/2000/svg">
<path d="M6.87619 6.69579L1.78614 1.11616C1.61937 0.933456 1.3468 0.931382 1.17714 1.11178C1.00761 1.29216 1.00548 1.58674 1.17227 1.76958L4.08228 4.95951C5.14074 6.11978 5.12519 7.90003 4.04662 9.04163L1.08124 12.1803C0.911305 12.3602 0.908302 12.6546 1.07463 12.8379C1.15809 12.9298 1.26807 12.9764 1.37844 12.9774C1.48854 12.9783 1.59888 12.934 1.68377 12.8442L6.87044 7.35438C6.95229 7.26795 6.99882 7.14976 6.9999 7.02621C7.00098 6.90265 6.95638 6.7838 6.87619 6.69579Z" fill="black"/>
</svg>
